STARTFONT 2.1
FONT -Adobe-Helvetica-Bold-R-Normal--24-240-75-75-P-138-iso10646-0400
SIZE 24 75 75
FONTBOUNDINGBOX 27 29 -2 -5
COMMENT $XConsortium: helvB24.bdf,v 1.14 95/01/26 18:01:49 gildea Exp $
COMMENT 
COMMENT +
COMMENT  Copyright 1984-1989, 1994 Adobe Systems Incorporated.
COMMENT  Copyright 1988, 1994 Digital Equipment Corporation.
COMMENT
COMMENT  Adobe is a trademark of Adobe Systems Incorporated which may be
COMMENT  registered in certain jurisdictions.
COMMENT  Permission to use these trademarks is hereby granted only in
COMMENT  association with the images described in this file.
COMMENT
COMMENT  Permission to use, copy, modify, distribute and sell this software
COMMENT  and its documentation for any purpose and without fee is hereby
COMMENT  granted, provided that the above copyright notices appear in all
COMMENT  copies and that both those copyright notices and this permission
COMMENT  notice appear in supporting documentation, and that the names of
COMMENT  Adobe Systems and Digital Equipment Corporation not be used in
COMMENT  advertising or publicity pertaining to distribution of the software
COMMENT  without specific, written prior permission.  Adobe Systems and
COMMENT  Digital Equipment Corporation make no representations about the
COMMENT  suitability of this software for any purpose.  It is provided "as
COMMENT  is" without express or implied warranty.
COMMENT -
STARTPROPERTIES 32
FOUNDRY "Adobe"
FAMILY_NAME "Helvetica"
WEIGHT_NAME "Bold"
SLANT "R"
SETWIDTH_NAME "Normal"
ADD_STYLE_NAME ""
PIXEL_SIZE 24
POINT_SIZE 240
RESOLUTION_X 75
RESOLUTION_Y 75
SPACING "P"
AVERAGE_WIDTH 138
CHARSET_REGISTRY "iso10646"
CHARSET_ENCODING "0400"
CAP_HEIGHT 19
X_HEIGHT 14
FONT_ASCENT 22
FONT_DESCENT 5
FACE_NAME "Helvetica Bold"
COPYRIGHT "Copyright (c) 1984, 1987 Adobe Systems Incorporated. All Rights Reserved. Copyright (c) 1988, 1991 Digital Equipment Corporation. All Rights Reserved."

STARTCHAR space
ENCODING 32
SWIDTH 278 0
DWIDTH 6 0
BBX 0 0 0 0
BITMAP
ENDCHAR
STARTCHAR exclam
ENCODING 33
SWIDTH 333 0
DWIDTH 7 0
BBX 3 19 2 0
BITMAP
E0
E0
E0
E0
E0
E0
E0
E0
E0
E0
E0
E0
E0
E0
00
00
E0
E0
E0
ENDCHAR
STARTCHAR quotedbl
ENCODING 34
SWIDTH 474 0
DWIDTH 9 0
BBX 5 6 2 13
BITMAP
D8
D8
D8
D8
D8
90
ENDCHAR
STARTCHAR numbersign
ENCODING 35
SWIDTH 556 0
DWIDTH 14 0
BBX 12 18 0 0
BITMAP
0CC0
0CC0
0CC0
0CC0
0CC0
7FF0
7FF0
1980
1980
1980
1980
FFE0
FFE0
3300
3300
3300
3300
3300
ENDCHAR
STARTCHAR dollar
ENCODING 36
SWIDTH 556 0
DWIDTH 13 0
BBX 12 21 0 -2
BITMAP
0600
3F80
7FC0
F6E0
E6E0
E6E0
F600
7E00
3E00
0F00
07C0
07E0
06F0
E670
E670
E670
F6F0
7FE0
1FC0
0600
0600
ENDCHAR
STARTCHAR percent
ENCODING 37
SWIDTH 889 0
DWIDTH 22 0
BBX 21 18 0 0
BITMAP
000700
3E0700
7F0E00
E38E00
C19C00
C19C00
E3B800
7F3800
3E7000
007000
00E3E0
00E7F0
01CE38
01CC18
038C18
038E38
0707F0
0703E0
ENDCHAR
STARTCHAR ampersand
ENCODING 38
SWIDTH 722 0
DWIDTH 18 0
BBX 16 18 1 0
BITMAP
0F80
1FC0
3DE0
38E0
38E0
38E0
1DC0
0F80
1F00
3F9C
7BDC
71FC
E0F8
E070
E0F8
F1FC
7FCE
1F87
ENDCHAR
STARTCHAR quotesingle
ENCODING 39
SWIDTH 238 0
DWIDTH 6 0
BBX 2 6 2 13
BITMAP
C0
C0
C0
C0
C0
80
ENDCHAR
STARTCHAR parenleft
ENCODING 40
SWIDTH 333 0
DWIDTH 8 0
BBX 6 24 1 -5
BITMAP
0C
1C
38
38
70
70
60
E0
E0
E0
E0
E0
E0
E0
E0
E0
E0
60
70
70
38
38
1C
0C
ENDCHAR
STARTCHAR parenright
ENCODING 41
SWIDTH 333 0
DWIDTH 8 0
BBX 6 24 1 -5
BITMAP
C0
E0
70
70
38
38
18
1C
1C
1C
1C
1C
1C
1C
1C
1C
1C
18
38
38
70
70
E0
C0
ENDCHAR
STARTCHAR asterisk
ENCODING 42
SWIDTH 389 0
DWIDTH 10 0
BBX 8 7 1 12
BITMAP
18
18
DB
FF
3C
66
66
ENDCHAR
STARTCHAR plus
ENCODING 43
SWIDTH 584 0
DWIDTH 15 0
BBX 11 12 2 1
BITMAP
0E00
0E00
0E00
0E00
0E00
FFE0
FFE0
0E00
0E00
0E00
0E00
0E00
ENDCHAR
STARTCHAR comma
ENCODING 44
SWIDTH 278 0
DWIDTH 7 0
BBX 3 6 2 -3
BITMAP
E0
E0
E0
60
60
C0
ENDCHAR
STARTCHAR minus
ENCODING 45
SWIDTH 584 0
DWIDTH 15 0
BBX 12 2 1 6
BITMAP
FFF0
FFF0
ENDCHAR
STARTCHAR period
ENCODING 46
SWIDTH 278 0
DWIDTH 7 0
BBX 3 3 2 0
BITMAP
E0
E0
E0
ENDCHAR
STARTCHAR slash
ENCODING 47
SWIDTH 278 0
DWIDTH 8 0
BBX 8 19 0 0
BITMAP
07
07
06
06
0E
0C
0C
1C
1C
18
18
38
30
30
70
60
60
E0
E0
ENDCHAR
STARTCHAR zero
ENCODING 48
SWIDTH 556 0
DWIDTH 13 0
BBX 12 18 0 0
BITMAP
1F80
3FC0
79E0
70E0
70E0
E070
E070
E070
E070
E070
E070
E070
E070
70E0
70E0
79E0
3FC0
1F80
ENDCHAR
STARTCHAR one
ENCODING 49
SWIDTH 556 0
DWIDTH 13 0
BBX 7 18 2 0
BITMAP
0E
0E
1E
FE
FE
0E
0E
0E
0E
0E
0E
0E
0E
0E
0E
0E
0E
0E
ENDCHAR
STARTCHAR two
ENCODING 50
SWIDTH 556 0
DWIDTH 13 0
BBX 12 18 0 0
BITMAP
1F00
7FC0
71E0
E0E0
E070
E070
0070
00E0
01E0
03C0
0780
1F00
3C00
7800
F000
E000
FFF0
FFF0
ENDCHAR
STARTCHAR three
ENCODING 51
SWIDTH 556 0
DWIDTH 13 0
BBX 12 18 0 0
BITMAP
1F00
7FC0
71C0
E0E0
E0E0
E0E0
00E0
01C0
0F80
0FE0
00E0
0070
0070
E070
E0F0
71E0
7FE0
1F80
ENDCHAR
STARTCHAR four
ENCODING 52
SWIDTH 556 0
DWIDTH 13 0
BBX 12 18 0 0
BITMAP
01C0
03C0
03C0
07C0
07C0
0DC0
1DC0
19C0
31C0
71C0
61C0
E1C0
FFF0
FFF0
01C0
01C0
01C0
01C0
ENDCHAR
STARTCHAR five
ENCODING 53
SWIDTH 556 0
DWIDTH 13 0
BBX 12 18 0 0
BITMAP
7FE0
7FE0
7000
7000
7000
7000
7F80
7FC0
71E0
00E0
0070
0070
0070
E070
E0F0
F1E0
7FC0
1F80
ENDCHAR
STARTCHAR six
ENCODING 54
SWIDTH 556 0
DWIDTH 13 0
BBX 12 18 0 0
BITMAP
0F80
3FE0
78E0
7070
E070
E000
E000
EF00
FFC0
F9E0
F0E0
E070
E070
E070
70E0
79E0
3FC0
1F80
ENDCHAR
STARTCHAR seven
ENCODING 55
SWIDTH 556 0
DWIDTH 13 0
BBX 12 18 0 0
BITMAP
FFF0
FFF0
00F0
00E0
01C0
01C0
0380
0380
0700
0700
0E00
0E00
1E00
1C00
1C00
3C00
3800
3800
ENDCHAR
STARTCHAR eight
ENCODING 56
SWIDTH 556 0
DWIDTH 13 0
BBX 12 18 0 0
BITMAP
0F00
3FC0
39C0
70E0
70E0
70E0
70E0
39C0
1F80
3FC0
70E0
E070
E070
E070
E070
70E0
7FE0
1F80
ENDCHAR
STARTCHAR nine
ENCODING 57
SWIDTH 556 0
DWIDTH 13 0
BBX 12 18 0 0
BITMAP
1F80
7FC0
79E0
F0E0
E070
E070
E070
E070
F0F0
79F0
7FF0
1F70
0070
0070
E0E0
F3E0
7FC0
1F00
ENDCHAR
STARTCHAR colon
ENCODING 58
SWIDTH 333 0
DWIDTH 7 0
BBX 3 14 2 0
BITMAP
E0
E0
E0
00
00
00
00
00
00
00
00
E0
E0
E0
ENDCHAR
STARTCHAR semicolon
ENCODING 59
SWIDTH 333 0
DWIDTH 7 0
BBX 3 17 2 -3
BITMAP
E0
E0
E0
00
00
00
00
00
00
00
00
E0
E0
E0
60
60
C0
ENDCHAR
STARTCHAR less
ENCODING 60
SWIDTH 584 0
DWIDTH 15 0
BBX 13 12 0 1
BITMAP
0038
00F8
03E0
0F80
3E00
F000
F000
3E00
0F80
03E0
00F8
0038
ENDCHAR
STARTCHAR equal
ENCODING 61
SWIDTH 584 0
DWIDTH 14 0
BBX 10 6 2 4
BITMAP
FFC0
FFC0
0000
0000
FFC0
FFC0
ENDCHAR
STARTCHAR greater
ENCODING 62
SWIDTH 584 0
DWIDTH 14 0
BBX 13 12 0 1
BITMAP
E000
F800
3E00
0F80
03E0
0078
0078
03E0
0F80
3E00
F800
E000
ENDCHAR
STARTCHAR question
ENCODING 63
SWIDTH 611 0
DWIDTH 15 0
BBX 11 19 2 0
BITMAP
1F80
7FC0
79E0
F0E0
E0E0
E1E0
01C0
03C0
0780
0700
0E00
0E00
0E00
0E00
0000
0000
0E00
0E00
0E00
ENDCHAR
STARTCHAR at
ENCODING 64
SWIDTH 975 0
DWIDTH 24 0
BBX 22 22 1 -4
BITMAP
01FF00
07FFC0
0F81F0
1E0078
3C0038
787D9C
70FF9C
F1C71C
E3871C
E30E1C
E70E38
E70C38
E71C70
E71C70
E39DE0
F3FFC0
71F700
780000
3C0000
1F0700
0FFF00
03FC00
ENDCHAR
STARTCHAR A
ENCODING 65
SWIDTH 722 0
DWIDTH 18 0
BBX 16 19 1 0
BITMAP
03C0
03C0
07E0
07E0
0E60
0E70
0E70
1C38
1C38
1C38
381C
381C
3FFC
7FFE
700E
700E
E007
E007
E007
ENDCHAR
STARTCHAR B
ENCODING 66
SWIDTH 722 0
DWIDTH 18 0
BBX 15 19 2 0
BITMAP
FFE0
FFF8
E078
E01C
E01C
E01C
E01C
E038
FFF0
FFF8
E01C
E00E
E00E
E00E
E00E
E01E
E07C
FFF8
FFE0
ENDCHAR
STARTCHAR C
ENCODING 67
SWIDTH 722 0
DWIDTH 18 0
BBX 16 19 1 0
BITMAP
07F0
1FFC
3E3E
780F
7007
F000
E000
E000
E000
E000
E000
E000
E000
F007
7007
780F
3E3E
1FFC
07F0
ENDCHAR
STARTCHAR D
ENCODING 68
SWIDTH 722 0
DWIDTH 19 0
BBX 16 19 2 0
BITMAP
FFE0
FFF8
E07C
E01E
E00E
E00F
E007
E007
E007
E007
E007
E007
E007
E00F
E00E
E01E
E07C
FFF8
FFE0
ENDCHAR
STARTCHAR E
ENCODING 69
SWIDTH 667 0
DWIDTH 16 0
BBX 13 19 2 0
BITMAP
FFF0
FFF0
E000
E000
E000
E000
E000
E000
FFE0
FFE0
E000
E000
E000
E000
E000
E000
E000
FFF8
FFF8
ENDCHAR
STARTCHAR F
ENCODING 70
SWIDTH 611 0
DWIDTH 15 0
BBX 12 19 2 0
BITMAP
FFF0
FFF0
E000
E000
E000
E000
E000
E000
FFE0
FFE0
E000
E000
E000
E000
E000
E000
E000
E000
E000
ENDCHAR
STARTCHAR G
ENCODING 71
SWIDTH 778 0
DWIDTH 19 0
BBX 17 19 1 0
BITMAP
07F000
1FFC00
3E3E00
780F00
700700
F00000
E00000
E00000
E00000
E07F80
E07F80
E00380
E00380
F00380
700780
780F80
3E3F80
1FFB80
07F180
ENDCHAR
STARTCHAR H
ENCODING 72
SWIDTH 722 0
DWIDTH 19 0
BBX 15 19 2 0
BITMAP
E00E
E00E
E00E
E00E
E00E
E00E
E00E
E00E
FFFE
FFFE
E00E
E00E
E00E
E00E
E00E
E00E
E00E
E00E
E00E
ENDCHAR
STARTCHAR I
ENCODING 73
SWIDTH 278 0
DWIDTH 7 0
BBX 3 19 2 0
BITMAP
E0
E0
E0
E0
E0
E0
E0
E0
E0
E0
E0
E0
E0
E0
E0
E0
E0
E0
E0
ENDCHAR
STARTCHAR J
ENCODING 74
SWIDTH 556 0
DWIDTH 14 0
BBX 11 19 1 0
BITMAP
00E0
00E0
00E0
00E0
00E0
00E0
00E0
00E0
00E0
00E0
00E0
00E0
E0E0
E0E0
E0E0
E0E0
71E0
7FC0
3F80
ENDCHAR
STARTCHAR K
ENCODING 75
SWIDTH 722 0
DWIDTH 18 0
BBX 16 19 2 0
BITMAP
E03C
E078
E0F0
E1E0
E3C0
E780
EF00
FE00
FE00
FF00
F780
E3C0
E1E0
E0F0
E078
E03C
E01E
E00F
E007
ENDCHAR
STARTCHAR L
ENCODING 76
SWIDTH 611 0
DWIDTH 15 0
BBX 12 19 2 0
BITMAP
E000
E000
E000
E000
E000
E000
E000
E000
E000
E000
E000
E000
E000
E000
E000
E000
E000
FFF0
FFF0
ENDCHAR
STARTCHAR M
ENCODING 77
SWIDTH 833 0
DWIDTH 23 0
BBX 19 19 2 0
BITMAP
E000E0
F001E0
F001E0
F803E0
F803E0
FC07E0
EC06E0
EE0EE0
E60CE0
E71CE0
E71CE0
E318E0
E3B8E0
E3B8E0
E1F0E0
E1F0E0
E0E0E0
E0E0E0
E0E0E0
ENDCHAR
STARTCHAR N
ENCODING 78
SWIDTH 722 0
DWIDTH 19 0
BBX 15 19 2 0
BITMAP
E00E
F00E
F00E
F80E
F80E
FC0E
EE0E
EE0E
E70E
E38E
E38E
E1CE
E0CE
E0EE
E07E
E03E
E03E
E01E
E00E
ENDCHAR
STARTCHAR O
ENCODING 79
SWIDTH 778 0
DWIDTH 19 0
BBX 17 19 1 0
BITMAP
07F000
1FFC00
3E3E00
780F00
700700
F00780
E00380
E00380
E00380
E00380
E00380
E00380
E00380
F00780
700700
780F00
3E3E00
1FFC00
07F000
ENDCHAR
STARTCHAR P
ENCODING 80
SWIDTH 667 0
DWIDTH 17 0
BBX 14 19 2 0
BITMAP
FFE0
FFF8
E038
E01C
E01C
E01C
E01C
E038
FFF8
FFF0
E000
E000
E000
E000
E000
E000
E000
E000
E000
ENDCHAR
STARTCHAR Q
ENCODING 81
SWIDTH 778 0
DWIDTH 19 0
BBX 17 19 1 0
BITMAP
07F000
1FFC00
3E3E00
780F00
700700
F00780
E00380
E00380
E00380
E00380
E00380
E00380
E00380
F00780
70F700
787F00
3E1E00
1FFF00
07F780
ENDCHAR
STARTCHAR R
ENCODING 82
SWIDTH 722 0
DWIDTH 17 0
BBX 14 19 2 0
BITMAP
FFE0
FFF8
E038
E01C
E01C
E01C
E01C
E038
FFF8
FFF0
E078
E038
E01C
E01C
E01C
E01C
E01C
E01C
E01C
ENDCHAR
STARTCHAR S
ENCODING 83
SWIDTH 667 0
DWIDTH 17 0
BBX 15 19 1 0
BITMAP
07E0
1FF8
3C7C
781C
701C
7000
7800
3E00
1FE0
03F8
007C
001E
000E
E00E
E00E
F01E
7C7C
3FF8
0FE0
ENDCHAR
STARTCHAR T
ENCODING 84
SWIDTH 611 0
DWIDTH 15 0
BBX 15 19 0 0
BITMAP
FFFE
FFFE
0380
0380
0380
0380
0380
0380
0380
0380
0380
0380
0380
0380
0380
0380
0380
0380
0380
ENDCHAR
STARTCHAR U
ENCODING 85
SWIDTH 722 0
DWIDTH 19 0
BBX 15 19 2 0
BITMAP
E00E
E00E
E00E
E00E
E00E
E00E
E00E
E00E
E00E
E00E
E00E
E00E
E00E
E00E
F01E
701C
7C7C
3FF8
0FE0
ENDCHAR
STARTCHAR V
ENCODING 86
SWIDTH 667 0
DWIDTH 18 0
BBX 16 19 1 0
BITMAP
E007
E007
F00F
700E
781E
381C
381C
3C3C
1C38
1C38
1E78
0E70
0E70
0E70
07E0
07E0
03C0
03C0
03C0
ENDCHAR
STARTCHAR W
ENCODING 87
SWIDTH 944 0
DWIDTH 23 0
BBX 21 19 1 0
BITMAP
E07038
E07038
E07038
E07038
70F870
70F870
70D870
71DC70
31DC60
39DCE0
398CE0
3B8EE0
1B8EC0
1B8EC0
1F07C0
1F07C0
0E0380
0E0380
0E0380
ENDCHAR
STARTCHAR X
ENCODING 88
SWIDTH 667 0
DWIDTH 18 0
BBX 16 19 1 0
BITMAP
E007
F00F
781E
381C
1C38
0E70
0FF0
07E0
03C0
03C0
07E0
0FF0
0E70
1C38
3C3C
381C
700E
F00F
E007
ENDCHAR
STARTCHAR Y
ENCODING 89
SWIDTH 667 0
DWIDTH 17 0
BBX 15 19 1 0
BITMAP
E00E
F01E
701C
783C
3838
3C78
1C70
1EF0
0EE0
0FE0
07C0
07C0
0380
0380
0380
0380
0380
0380
0380
ENDCHAR
STARTCHAR Z
ENCODING 90
SWIDTH 611 0
DWIDTH 16 0
BBX 14 19 1 0
BITMAP
FFFC
FFFC
003C
0078
00F0
01E0
01E0
03C0
0780
0780
0F00
1E00
1E00
3C00
3800
7800
F000
FFFC
FFFC
ENDCHAR
STARTCHAR bracketleft
ENCODING 91
SWIDTH 333 0
DWIDTH 8 0
BBX 5 24 1 -5
BITMAP
F8
F8
E0
E0
E0
E0
E0
E0
E0
E0
E0
E0
E0
E0
E0
E0
E0
E0
E0
E0
E0
E0
F8
F8
ENDCHAR
STARTCHAR backslash
ENCODING 92
SWIDTH 278 0
DWIDTH 8 0
BBX 8 19 0 0
BITMAP
E0
E0
60
60
70
30
30
38
38
18
18
1C
0C
0C
0E
06
06
07
07
ENDCHAR
STARTCHAR bracketright
ENCODING 93
SWIDTH 333 0
DWIDTH 8 0
BBX 5 24 2 -5
BITMAP
F8
F8
38
38
38
38
38
38
38
38
38
38
38
38
38
38
38
38
38
38
38
38
F8
F8
ENDCHAR
STARTCHAR asciicircum
ENCODING 94
SWIDTH 584 0
DWIDTH 14 0
BBX 11 9 1 10
BITMAP
0E00
0E00
1F00
1B00
3B80
71C0
71C0
E0E0
E0E0
ENDCHAR
STARTCHAR underscore
ENCODING 95
SWIDTH 556 0
DWIDTH 14 0
BBX 14 2 0 -5
BITMAP
FFFC
FFFC
ENDCHAR
STARTCHAR grave
ENCODING 96
SWIDTH 333 0
DWIDTH 8 0
BBX 6 4 1 15
BITMAP
E0
70
38
1C
ENDCHAR
STARTCHAR a
ENCODING 97
SWIDTH 556 0
DWIDTH 14 0
BBX 12 14 1 0
BITMAP
1F80
3FC0
71E0
70E0
00E0
07E0
3FE0
7CE0
F0E0
E0E0
E1E0
F3E0
7FF0
3E70
ENDCHAR
STARTCHAR b
ENCODING 98
SWIDTH 611 0
DWIDTH 15 0
BBX 12 19 2 0
BITMAP
E000
E000
E000
E000
E000
EF80
FFC0
F9E0
F0E0
E070
E070
E070
E070
E070
E070
F0E0
F9E0
FFC0
EF80
ENDCHAR
STARTCHAR c
ENCODING 99
SWIDTH 556 0
DWIDTH 13 0
BBX 11 14 1 0
BITMAP
1F80
3FC0
79E0
70E0
E000
E000
E000
E000
E000
E000
70E0
79E0
3FC0
1F80
ENDCHAR
STARTCHAR d
ENCODING 100
SWIDTH 611 0
DWIDTH 15 0
BBX 12 19 1 0
BITMAP
0070
0070
0070
0070
0070
1F70
3FF0
79F0
70F0
E070
E070
E070
E070
E070
E070
70F0
79F0
3FF0
1F70
ENDCHAR
STARTCHAR e
ENCODING 101
SWIDTH 556 0
DWIDTH 14 0
BBX 12 14 1 0
BITMAP
0F00
3FC0
79E0
70E0
E070
E070
FFF0
FFF0
E000
E000
7070
78F0
3FE0
0F80
ENDCHAR
STARTCHAR f
ENCODING 102
SWIDTH 333 0
DWIDTH 9 0
BBX 7 19 1 0
BITMAP
1E
3E
38
38
38
FE
FE
38
38
38
38
38
38
38
38
38
38
38
38
ENDCHAR
STARTCHAR g
ENCODING 103
SWIDTH 611 0
DWIDTH 15 0
BBX 12 19 1 -5
BITMAP
1F70
3FF0
79F0
70F0
E070
E070
E070
E070
E070
E070
70F0
79F0
3FF0
1F70
0070
E070
F0E0
7FE0
1F80
ENDCHAR
STARTCHAR h
ENCODING 104
SWIDTH 611 0
DWIDTH 15 0
BBX 11 19 2 0
BITMAP
E000
E000
E000
E000
E000
EF00
FFC0
F1C0
E0E0
E0E0
E0E0
E0E0
E0E0
E0E0
E0E0
E0E0
E0E0
E0E0
E0E0
ENDCHAR
STARTCHAR i
ENCODING 105
SWIDTH 278 0
DWIDTH 7 0
BBX 3 19 2 0
BITMAP
E0
E0
E0
00
00
E0
E0
E0
E0
E0
E0
E0
E0
E0
E0
E0
E0
E0
E0
ENDCHAR
STARTCHAR j
ENCODING 106
SWIDTH 278 0
DWIDTH 7 0
BBX 5 24 0 -5
BITMAP
38
38
38
00
00
38
38
38
38
38
38
38
38
38
38
38
38
38
38
38
38
38
F8
F0
ENDCHAR
STARTCHAR k
ENCODING 107
SWIDTH 556 0
DWIDTH 14 0
BBX 12 19 2 0
BITMAP
E000
E000
E000
E000
E000
E1E0
E3C0
E780
EF00
FE00
FC00
FE00
EF00
E700
E780
E3C0
E1C0
E1E0
E0F0
ENDCHAR
STARTCHAR l
ENCODING 108
SWIDTH 278 0
DWIDTH 7 0
BBX 3 19 2 0
BITMAP
E0
E0
E0
E0
E0
E0
E0
E0
E0
E0
E0
E0
E0
E0
E0
E0
E0
E0
E0
ENDCHAR
STARTCHAR m
ENCODING 109
SWIDTH 889 0
DWIDTH 21 0
BBX 17 14 2 0
BITMAP
EF3E00
FFFF00
F3E780
E1C380
E1C380
E1C380
E1C380
E1C380
E1C380
E1C380
E1C380
E1C380
E1C380
E1C380
ENDCHAR
STARTCHAR n
ENCODING 110
SWIDTH 611 0
DWIDTH 15 0
BBX 11 14 2 0
BITMAP
EF80
FFC0
F1C0
E0E0
E0E0
E0E0
E0E0
E0E0
E0E0
E0E0
E0E0
E0E0
E0E0
E0E0
ENDCHAR
STARTCHAR o
ENCODING 111
SWIDTH 611 0
DWIDTH 14 0
BBX 12 14 1 0
BITMAP
0F00
3FC0
79E0
70E0
E070
E070
E070
E070
E070
E070
70E0
79E0
3FC0
0F00
ENDCHAR
STARTCHAR p
ENCODING 112
SWIDTH 611 0
DWIDTH 15 0
BBX 12 19 2 -5
BITMAP
EF80
FFC0
F9E0
F0E0
E070
E070
E070
E070
E070
E070
F0E0
F9E0
FFC0
EF80
E000
E000
E000
E000
E000
ENDCHAR
STARTCHAR q
ENCODING 113
SWIDTH 611 0
DWIDTH 15 0
BBX 12 19 1 -5
BITMAP
1F70
3FF0
79F0
70F0
E070
E070
E070
E070
E070
E070
70F0
79F0
3FF0
1F70
0070
0070
0070
0070
0070
ENDCHAR
STARTCHAR r
ENCODING 114
SWIDTH 389 0
DWIDTH 10 0
BBX 7 14 2 0
BITMAP
E6
EE
FE
F0
E0
E0
E0
E0
E0
E0
E0
E0
E0
E0
ENDCHAR
STARTCHAR s
ENCODING 115
SWIDTH 556 0
DWIDTH 13 0
BBX 11 14 1 0
BITMAP
3F00
7F80
F3C0
E1C0
E000
FC00
7F80
0FC0
01E0
E0E0
E0E0
F1E0
7FC0
3F80
ENDCHAR
STARTCHAR t
ENCODING 116
SWIDTH 333 0
DWIDTH 9 0
BBX 7 18 1 0
BITMAP
38
38
38
38
FE
FE
38
38
38
38
38
38
38
38
38
38
3E
1E
ENDCHAR
STARTCHAR u
ENCODING 117
SWIDTH 611 0
DWIDTH 15 0
BBX 11 14 2 0
BITMAP
E0E0
E0E0
E0E0
E0E0
E0E0
E0E0
E0E0
E0E0
E0E0
E0E0
E1E0
73E0
7EE0
1CE0
ENDCHAR
STARTCHAR v
ENCODING 118
SWIDTH 556 0
DWIDTH 14 0
BBX 12 14 1 0
BITMAP
E070
E070
E070
70E0
70E0
70E0
39C0
39C0
39C0
1F80
1F80
0F00
0F00
0F00
ENDCHAR
STARTCHAR w
ENCODING 119
SWIDTH 778 0
DWIDTH 19 0
BBX 19 14 0 0
BITMAP
E0E0E0
E0E0E0
60E0C0
71F1C0
71F1C0
31B180
33B980
3BBB80
1B1B00
1F1F00
1F1F00
0E0E00
0E0E00
0E0E00
ENDCHAR
STARTCHAR x
ENCODING 120
SWIDTH 556 0
DWIDTH 13 0
BBX 11 14 1 0
BITMAP
E0E0
F1E0
71C0
3B80
3F80
1F00
0E00
1F00
1F00
3B80
7BC0
71C0
F1E0
E0E0
ENDCHAR
STARTCHAR y
ENCODING 121
SWIDTH 556 0
DWIDTH 15 0
BBX 13 19 1 -5
BITMAP
E038
E038
7038
7870
3870
3CF0
1CE0
1CE0
0FC0
0FC0
07C0
0780
0380
0380
0700
0700
0E00
3E00
3C00
ENDCHAR
STARTCHAR z
ENCODING 122
SWIDTH 500 0
DWIDTH 13 0
BBX 11 14 1 0
BITMAP
FFE0
FFE0
01C0
0380
0780
0F00
0E00
1E00
3C00
3800
7000
F000
FFE0
FFE0
ENDCHAR
STARTCHAR braceleft
ENCODING 123
SWIDTH 389 0
DWIDTH 10 0
BBX 7 24 1 -5
BITMAP
0E
1C
38
38
38
38
38
38
38
38
70
E0
E0
70
38
38
38
38
38
38
38
38
1C
0E
ENDCHAR
STARTCHAR bar
ENCODING 124
SWIDTH 280 0
DWIDTH 7 0
BBX 3 24 2 -5
BITMAP
E0
E0
E0
E0
E0
E0
E0
E0
E0
E0
E0
E0
E0
E0
E0
E0
E0
E0
E0
E0
E0
E0
E0
E0
ENDCHAR
STARTCHAR braceright
ENCODING 125
SWIDTH 389 0
DWIDTH 10 0
BBX 7 24 2 -5
BITMAP
E0
70
38
38
38
38
38
38
38
38
1C
0E
0E
1C
38
38
38
38
38
38
38
38
70
E0
ENDCHAR
STARTCHAR asciitilde
ENCODING 126
SWIDTH 584 0
DWIDTH 14 0
BBX 11 4 1 5
BITMAP
78E0
FEE0
EFE0
E3C0
ENDCHAR
STARTCHAR space
ENCODING 160
SWIDTH 278 0
DWIDTH 6 0
BBX 0 0 0 0
BITMAP
ENDCHAR
STARTCHAR exclamdown
ENCODING 161
SWIDTH 333 0
DWIDTH 7 0
BBX 3 19 2 -5
BITMAP
E0
E0
E0
00
00
E0
E0
E0
E0
E0
E0
E0
E0
E0
E0
E0
E0
E0
E0
ENDCHAR
STARTCHAR cent
ENCODING 162
SWIDTH 556 0
DWIDTH 14 0
BBX 11 18 1 -2
BITMAP
0180
0180
1F80
3FC0
7BE0
7360
E300
E600
E600
E600
E600
EC00
ECE0
7DE0
7FC0
3F80
1800
1800
ENDCHAR
STARTCHAR sterling
ENCODING 163
SWIDTH 556 0
DWIDTH 14 0
BBX 13 18 0 0
BITMAP
1F80
3FC0
70E0
70E0
7000
7800
3800
1C00
FFC0
FFC0
1C00
1C00
1C00
3800
3800
7738
FFF8
F9F0
ENDCHAR
STARTCHAR currency
ENCODING 164
SWIDTH 556 0
DWIDTH 14 0
BBX 12 12 1 3
BITMAP
C030
EF70
7FE0
39C0
70E0
70E0
70E0
70E0
39C0
7FE0
EF70
C030
ENDCHAR
STARTCHAR yen
ENCODING 165
SWIDTH 556 0
DWIDTH 14 0
BBX 13 18 0 0
BITMAP
E038
E038
7070
7070
38E0
38E0
1DC0
1DC0
7FF0
7FF0
0700
7FF0
7FF0
0700
0700
0700
0700
0700
ENDCHAR
STARTCHAR brokenbar
ENCODING 166
SWIDTH 280 0
DWIDTH 7 0
BBX 3 23 2 -4
BITMAP
E0
E0
E0
E0
E0
E0
E0
E0
E0
00
00
00
00
00
E0
E0
E0
E0
E0
E0
E0
E0
E0
ENDCHAR
STARTCHAR section
ENCODING 167
SWIDTH 556 0
DWIDTH 14 0
BBX 12 24 1 -5
BITMAP
1F80
3FC0
79E0
70E0
78E0
3C00
1E00
7F00
F780
E3C0
E1E0
E0E0
7070
7870
3C70
1EE0
0FC0
0780
03C0
71E0
70E0
79E0
3FC0
1F80
ENDCHAR
STARTCHAR dieresis
ENCODING 168
SWIDTH 333 0
DWIDTH 9 0
BBX 7 2 1 16
BITMAP
EE
EE
ENDCHAR
STARTCHAR copyright
ENCODING 169
SWIDTH 737 0
DWIDTH 19 0
BBX 17 17 1 0
BITMAP
07F000
1E3C00
380E00
700700
63E300
E73380
CE3180
CE0180
CE0180
CE0180
CE3180
E73180
63E300
700700
380E00
1E3C00
07F000
ENDCHAR
STARTCHAR ordfeminine
ENCODING 170
SWIDTH 370 0
DWIDTH 10 0
BBX 8 12 1 7
BITMAP
7C
FE
C6
1E
7E
E6
C6
FF
7B
00
FF
FF
ENDCHAR
STARTCHAR guillemotleft
ENCODING 171
SWIDTH 556 0
DWIDTH 13 0
BBX 10 8 1 3
BITMAP
1DC0
3B80
7700
EE00
EE00
7700
3B80
1DC0
ENDCHAR
STARTCHAR logicalnot
ENCODING 172
SWIDTH 584 0
DWIDTH 15 0
BBX 12 7 1 4
BITMAP
FFF0
FFF0
0030
0030
0030
0030
0030
ENDCHAR
STARTCHAR hyphen
ENCODING 173
SWIDTH 333 0
DWIDTH 8 0
BBX 7 3 0 6
BITMAP
FE
FE
FE
ENDCHAR
STARTCHAR registered
ENCODING 174
SWIDTH 737 0
DWIDTH 19 0
BBX 17 17 1 0
BITMAP
07F000
1E3C00
380E00
700700
67E300
E63380
C63180
C63180
C7E180
C6C180
C66180
E63180
661B00
700700
380E00
1E3C00
07F000
ENDCHAR
STARTCHAR macron
ENCODING 175
SWIDTH 333 0
DWIDTH 9 0
BBX 7 2 1 17
BITMAP
FE
FE
ENDCHAR
STARTCHAR degree
ENCODING 176
SWIDTH 400 0
DWIDTH 9 0
BBX 8 7 0 11
BITMAP
3C
66
C3
C3
C3
66
3C
ENDCHAR
STARTCHAR plusminus
ENCODING 177
SWIDTH 584 0
DWIDTH 15 0
BBX 11 13 2 0
BITMAP
0E00
0E00
0E00
0E00
FFE0
FFE0
0E00
0E00
0E00
0E00
0000
FFE0
FFE0
ENDCHAR
STARTCHAR twosuperior
ENCODING 178
SWIDTH 333 0
DWIDTH 7 0
BBX 6 10 0 8
BITMAP
78
FC
CC
0C
1C
78
E0
C0
FC
FC
ENDCHAR
STARTCHAR threesuperior
ENCODING 179
SWIDTH 333 0
DWIDTH 7 0
BBX 6 10 0 8
BITMAP
78
FC
CC
0C
38
38
0C
CC
FC
78
ENDCHAR
STARTCHAR acute
ENCODING 180
SWIDTH 333 0
DWIDTH 8 0
BBX 6 4 1 15
BITMAP
1C
38
70
E0
ENDCHAR
STARTCHAR mu
ENCODING 181
SWIDTH 611 0
DWIDTH 15 0
BBX 11 19 2 -5
BITMAP
E0E0
E0E0
E0E0
E0E0
E0E0
E0E0
E0E0
E0E0
E0E0
E0E0
E1E0
F3E0
FEE0
ECE0
E000
E000
E000
E000
E000
ENDCHAR
STARTCHAR paragraph
ENCODING 182
SWIDTH 556 0
DWIDTH 13 0
BBX 11 24 1 -5
BITMAP
0FE0
3FE0
7CC0
7CC0
FCC0
FCC0
FCC0
FCC0
FCC0
7CC0
7CC0
3CC0
1CC0
0CC0
0CC0
0CC0
0CC0
0CC0
0CC0
0CC0
0CC0
0CC0
0CC0
0CC0
ENDCHAR
STARTCHAR periodcentered
ENCODING 183
SWIDTH 278 0
DWIDTH 7 0
BBX 3 3 2 6
BITMAP
E0
E0
E0
ENDCHAR
STARTCHAR cedilla
ENCODING 184
SWIDTH 333 0
DWIDTH 8 0
BBX 6 6 1 -5
BITMAP
70
78
1C
1C
FC
78
ENDCHAR
STARTCHAR onesuperior
ENCODING 185
SWIDTH 333 0
DWIDTH 7 0
BBX 4 10 0 8
BITMAP
30
30
F0
F0
30
30
30
30
30
30
ENDCHAR
STARTCHAR ordmasculine
ENCODING 186
SWIDTH 365 0
DWIDTH 10 0
BBX 8 12 1 7
BITMAP
3C
7E
E7
C3
C3
C3
E7
7E
3C
00
FF
FF
ENDCHAR
STARTCHAR guillemotright
ENCODING 187
SWIDTH 556 0
DWIDTH 13 0
BBX 10 8 1 3
BITMAP
EE00
7700
3B80
1DC0
1DC0
3B80
7700
EE00
ENDCHAR
STARTCHAR onequarter
ENCODING 188
SWIDTH 834 0
DWIDTH 19 0
BBX 17 18 1 0
BITMAP
301800
301800
F03000
F03000
306000
306000
30C000
30C000
318600
318E00
031E00
031E00
063600
066600
0C7F80
0C7F80
180600
180600
ENDCHAR
STARTCHAR onehalf
ENCODING 189
SWIDTH 834 0
DWIDTH 19 0
BBX 16 18 1 0
BITMAP
3018
3018
F030
F030
3060
3060
30C0
30C0
319E
31BF
0333
0303
0607
061E
0C38
0C30
183F
183F
ENDCHAR
STARTCHAR threequarters
ENCODING 190
SWIDTH 834 0
DWIDTH 19 0
BBX 17 18 1 0
BITMAP
781800
FC1800
CC3000
0C3000
386000
386000
0CC000
CCC000
FD8600
798E00
031E00
031E00
063600
066600
0C7F80
0C7F80
180600
180600
ENDCHAR
STARTCHAR questiondown
ENCODING 191
SWIDTH 611 0
DWIDTH 15 0
BBX 11 19 2 -5
BITMAP
0E00
0E00
0E00
0000
0000
0E00
0E00
0E00
0E00
1C00
3C00
7800
7000
F0E0
E0E0
E1E0
F3C0
7FC0
3F00
ENDCHAR
STARTCHAR Agrave
ENCODING 192
SWIDTH 722 0
DWIDTH 18 0
BBX 16 24 1 0
BITMAP
0E00
0700
0380
01C0
0000
03C0
03C0
07E0
07E0
0E60
0E70
0E70
1C38
1C38
1C38
381C
381C
3FFC
7FFE
700E
700E
E007
E007
E007
ENDCHAR
STARTCHAR Aacute
ENCODING 193
SWIDTH 722 0
DWIDTH 18 0
BBX 16 24 1 0
BITMAP
0038
0070
00E0
01C0
0000
03C0
03C0
07E0
07E0
0E60
0E70
0E70
1C38
1C38
1C38
381C
381C
3FFC
7FFE
700E
700E
E007
E007
E007
ENDCHAR
STARTCHAR Acircumflex
ENCODING 194
SWIDTH 722 0
DWIDTH 18 0
BBX 16 24 1 0
BITMAP
01C0
03E0
0770
0E38
0000
03C0
03C0
07E0
07E0
0E60
0E70
0E70
1C38
1C38
1C38
381C
381C
3FFC
7FFE
700E
700E
E007
E007
E007
ENDCHAR
STARTCHAR Atilde
ENCODING 195
SWIDTH 722 0
DWIDTH 18 0
BBX 16 23 1 0
BITMAP
0798
0FF8
0CF0
0000
03C0
03C0
07E0
07E0
0E60
0E70
0E70
1C38
1C38
1C38
381C
381C
3FFC
7FFE
700E
700E
E007
E007
E007
ENDCHAR
STARTCHAR Adieresis
ENCODING 196
SWIDTH 722 0
DWIDTH 18 0
BBX 16 23 1 0
BITMAP
0E70
0E70
0000
0000
03C0
03C0
07E0
07E0
0E60
0E70
0E70
1C38
1C38
1C38
381C
381C
3FFC
7FFE
700E
700E
E007
E007
E007
ENDCHAR
STARTCHAR Aring
ENCODING 197
SWIDTH 722 0
DWIDTH 18 0
BBX 16 23 1 0
BITMAP
03C0
0660
0660
0660
03C0
03C0
07E0
07E0
0E60
0E70
0E70
1C38
1C38
1C38
381C
381C
3FFC
7FFE
700E
700E
E007
E007
E007
ENDCHAR
STARTCHAR AE
ENCODING 198
SWIDTH 1000 0
DWIDTH 24 0
BBX 22 19 1 0
BITMAP
03FFF8
03FFF8
07F000
067000
0E7000
0E7000
0E7000
1C7000
1C7FF0
1C7FF0
387000
387000
3FF000
7FF000
707000
707000
E07000
E07FFC
E07FFC
ENDCHAR
STARTCHAR Ccedilla
ENCODING 199
SWIDTH 722 0
DWIDTH 18 0
BBX 16 24 1 -5
BITMAP
07F0
1FFC
3E3E
780F
7007
F000
E000
E000
E000
E000
E000
E000
E000
F007
7007
780F
3E3E
1FFC
07F0
03C0
00E0
00E0
07E0
03C0
ENDCHAR
STARTCHAR Egrave
ENCODING 200
SWIDTH 667 0
DWIDTH 16 0
BBX 13 24 2 0
BITMAP
7000
3800
1C00
0E00
0000
FFF0
FFF0
E000
E000
E000
E000
E000
E000
FFE0
FFE0
E000
E000
E000
E000
E000
E000
E000
FFF8
FFF8
ENDCHAR
STARTCHAR Eacute
ENCODING 201
SWIDTH 667 0
DWIDTH 16 0
BBX 13 24 2 0
BITMAP
00E0
01C0
0380
0700
0000
FFF0
FFF0
E000
E000
E000
E000
E000
E000
FFE0
FFE0
E000
E000
E000
E000
E000
E000
E000
FFF8
FFF8
ENDCHAR
STARTCHAR Ecircumflex
ENCODING 202
SWIDTH 667 0
DWIDTH 16 0
BBX 13 24 2 0
BITMAP
0700
0F80
1DC0
38E0
0000
FFF0
FFF0
E000
E000
E000
E000
E000
E000
FFE0
FFE0
E000
E000
E000
E000
E000
E000
E000
FFF8
FFF8
ENDCHAR
STARTCHAR Edieresis
ENCODING 203
SWIDTH 667 0
DWIDTH 16 0
BBX 13 23 2 0
BITMAP
39C0
39C0
0000
0000
FFF0
FFF0
E000
E000
E000
E000
E000
E000
FFE0
FFE0
E000
E000
E000
E000
E000
E000
E000
FFF8
FFF8
ENDCHAR
STARTCHAR Igrave
ENCODING 204
SWIDTH 278 0
DWIDTH 7 0
BBX 6 24 0 0
BITMAP
E0
70
38
1C
00
38
38
38
38
38
38
38
38
38
38
38
38
38
38
38
38
38
38
38
ENDCHAR
STARTCHAR Iacute
ENCODING 205
SWIDTH 278 0
DWIDTH 7 0
BBX 6 24 2 0
BITMAP
1C
38
70
E0
00
E0
E0
E0
E0
E0
E0
E0
E0
E0
E0
E0
E0
E0
E0
E0
E0
E0
E0
E0
ENDCHAR
STARTCHAR Icircumflex
ENCODING 206
SWIDTH 278 0
DWIDTH 7 0
BBX 9 24 -1 0
BITMAP
1C00
3E00
7700
E380
0000
1C00
1C00
1C00
1C00
1C00
1C00
1C00
1C00
1C00
1C00
1C00
1C00
1C00
1C00
1C00
1C00
1C00
1C00
1C00
ENDCHAR
STARTCHAR Idieresis
ENCODING 207
SWIDTH 278 0
DWIDTH 7 0
BBX 7 23 0 0
BITMAP
EE
EE
00
00
38
38
38
38
38
38
38
38
38
38
38
38
38
38
38
38
38
38
38
ENDCHAR
STARTCHAR Eth
ENCODING 208
SWIDTH 722 0
DWIDTH 19 0
BBX 19 19 -1 0
BITMAP
1FFC00
1FFF00
1C0F80
1C03C0
1C01C0
1C01E0
1C00E0
1C00E0
FFC0E0
FFC0E0
1C00E0
1C00E0
1C00E0
1C01E0
1C01C0
1C03C0
1C0F80
1FFF00
1FFC00
ENDCHAR
STARTCHAR Ntilde
ENCODING 209
SWIDTH 722 0
DWIDTH 19 0
BBX 15 23 2 0
BITMAP
0E30
1FF0
19E0
0000
E00E
F00E
F00E
F80E
F80E
FC0E
EE0E
EE0E
E70E
E38E
E38E
E1CE
E0CE
E0EE
E07E
E03E
E03E
E01E
E00E
ENDCHAR
STARTCHAR Ograve
ENCODING 210
SWIDTH 778 0
DWIDTH 19 0
BBX 17 24 1 0
BITMAP
070000
038000
01C000
00E000
000000
07F000
1FFC00
3E3E00
780F00
700700
F00780
E00380
E00380
E00380
E00380
E00380
E00380
E00380
F00780
700700
780F00
3E3E00
1FFC00
07F000
ENDCHAR
STARTCHAR Oacute
ENCODING 211
SWIDTH 778 0
DWIDTH 19 0
BBX 17 24 1 0
BITMAP
003800
007000
00E000
01C000
000000
07F000
1FFC00
3E3E00
780F00
700700
F00780
E00380
E00380
E00380
E00380
E00380
E00380
E00380
F00780
700700
780F00
3E3E00
1FFC00
07F000
ENDCHAR
STARTCHAR Ocircumflex
ENCODING 212
SWIDTH 778 0
DWIDTH 19 0
BBX 17 24 1 0
BITMAP
01C000
03E000
077000
0E3800
000000
07F000
1FFC00
3E3E00
780F00
700700
F00780
E00380
E00380
E00380
E00380
E00380
E00380
E00380
F00780
700700
780F00
3E3E00
1FFC00
07F000
ENDCHAR
STARTCHAR Otilde
ENCODING 213
SWIDTH 778 0
DWIDTH 19 0
BBX 17 24 1 0
BITMAP
079800
0FF800
0CF000
000000
000000
07F000
1FFC00
3E3E00
780F00
700700
F00780
E00380
E00380
E00380
E00380
E00380
E00380
E00380
F00780
700700
780F00
3E3E00
1FFC00
07F000
ENDCHAR
STARTCHAR Odieresis
ENCODING 214
SWIDTH 778 0
DWIDTH 19 0
BBX 17 23 1 0
BITMAP
0E3800
0E3800
000000
000000
07F000
1FFC00
3E3E00
780F00
700700
F00780
E00380
E00380
E00380
E00380
E00380
E00380
E00380
F00780
700700
780F00
3E3E00
1FFC00
07F000
ENDCHAR
STARTCHAR multiply
ENCODING 215
SWIDTH 584 0
DWIDTH 15 0
BBX 12 12 1 1
BITMAP
4020
E070
70E0
39C0
1F80
0F00
0F00
1F80
39C0
70E0
E070
4020
ENDCHAR
STARTCHAR Oslash
ENCODING 216
SWIDTH 778 0
DWIDTH 19 0
BBX 19 19 0 0
BITMAP
03F860
0FFEE0
1F1FC0
3C0380
380780
780FC0
701DC0
7039C0
7071C0
70E1C0
71C1C0
7381C0
7701C0
7E03C0
3C0380
3C0780
7F1F00
EFFE00
C3F800
ENDCHAR
STARTCHAR Ugrave
ENCODING 217
SWIDTH 722 0
DWIDTH 19 0
BBX 15 24 2 0
BITMAP
0E00
0700
0380
01C0
0000
E00E
E00E
E00E
E00E
E00E
E00E
E00E
E00E
E00E
E00E
E00E
E00E
E00E
F01E
F01E
701C
7C7C
3FF8
0FE0
ENDCHAR
STARTCHAR Uacute
ENCODING 218
SWIDTH 722 0
DWIDTH 19 0
BBX 15 24 2 0
BITMAP
0070
00E0
01C0
0380
0000
E00E
E00E
E00E
E00E
E00E
E00E
E00E
E00E
E00E
E00E
E00E
E00E
E00E
F01E
F01E
701C
7C7C
3FF8
0FE0
ENDCHAR
STARTCHAR Ucircumflex
ENCODING 219
SWIDTH 722 0
DWIDTH 19 0
BBX 15 24 2 0
BITMAP
0780
0FC0
1CE0
3870
0000
E00E
E00E
E00E
E00E
E00E
E00E
E00E
E00E
E00E
E00E
E00E
E00E
E00E
F01E
F01E
701C
7C7C
3FF8
0FE0
ENDCHAR
STARTCHAR Udieresis
ENCODING 220
SWIDTH 722 0
DWIDTH 19 0
BBX 15 23 2 0
BITMAP
1C70
1C70
0000
0000
E00E
E00E
E00E
E00E
E00E
E00E
E00E
E00E
E00E
E00E
E00E
E00E
E00E
F01E
F01E
701C
7C7C
3FF8
0FE0
ENDCHAR
STARTCHAR Yacute
ENCODING 221
SWIDTH 667 0
DWIDTH 17 0
BBX 15 24 1 0
BITMAP
0070
00E0
01C0
0380
0000
F01E
701C
783C
3838
3C78
1C70
1EF0
0EE0
0FE0
07C0
07C0
0380
0380
0380
0380
0380
0380
0380
0380
ENDCHAR
STARTCHAR Thorn
ENCODING 222
SWIDTH 667 0
DWIDTH 17 0
BBX 14 19 2 0
BITMAP
E000
E000
E000
E000
FFE0
FFF8
E038
E01C
E01C
E01C
E01C
E038
FFF8
FFF0
E000
E000
E000
E000
E000
ENDCHAR
STARTCHAR germandbls
ENCODING 223
SWIDTH 611 0
DWIDTH 14 0
BBX 11 19 2 0
BITMAP
1E00
7F80
F380
E1C0
E1C0
E1C0
E1C0
E380
EF00
EF80
E3C0
E1C0
E0E0
E0E0
E0E0
E0E0
E1C0
EFC0
EF80
ENDCHAR
STARTCHAR agrave
ENCODING 224
SWIDTH 556 0
DWIDTH 14 0
BBX 12 19 1 0
BITMAP
1C00
0E00
0700
0380
0000
1F80
3FC0
71E0
70E0
00E0
07E0
3FE0
7CE0
F0E0
E0E0
E1E0
F3E0
7FF0
3E70
ENDCHAR
STARTCHAR aacute
ENCODING 225
SWIDTH 556 0
DWIDTH 14 0
BBX 12 19 1 0
BITMAP
01C0
0380
0700
0E00
0000
1F80
3FC0
71E0
70E0
00E0
07E0
3FE0
7CE0
F0E0
E0E0
E1E0
F3E0
7FF0
3E70
ENDCHAR
STARTCHAR acircumflex
ENCODING 226
SWIDTH 556 0
DWIDTH 14 0
BBX 12 19 1 0
BITMAP
0700
0F80
1DC0
38E0
0000
1F80
3FC0
71E0
70E0
00E0
07E0
3FE0
7CE0
F0E0
E0E0
E1E0
F3E0
7FF0
3E70
ENDCHAR
STARTCHAR atilde
ENCODING 227
SWIDTH 556 0
DWIDTH 14 0
BBX 12 19 1 0
BITMAP
1E60
3FE0
33C0
0000
0000
1F80
3FC0
71E0
70E0
00E0
07E0
3FE0
7CE0
F0E0
E0E0
E1E0
F3E0
7FF0
3E70
ENDCHAR
STARTCHAR adieresis
ENCODING 228
SWIDTH 556 0
DWIDTH 14 0
BBX 12 18 1 0
BITMAP
1DC0
1DC0
0000
0000
1F80
3FC0
71E0
70E0
00E0
07E0
3FE0
7CE0
F0E0
E0E0
E1E0
F3E0
7FF0
3E70
ENDCHAR
STARTCHAR aring
ENCODING 229
SWIDTH 556 0
DWIDTH 14 0
BBX 12 19 1 0
BITMAP
0F00
1980
1980
1980
0F00
1F80
3FC0
71E0
70E0
00E0
07E0
3FE0
7CE0
F0E0
E0E0
E1E0
F3E0
7FF0
3E70
ENDCHAR
STARTCHAR ae
ENCODING 230
SWIDTH 889 0
DWIDTH 22 0
BBX 20 14 1 0
BITMAP
1F8F00
3FFFC0
71F9E0
70F0E0
00E070
07E070
3FFFF0
7CFFF0
F0E000
E0E000
E1F070
F3F8F0
7F3FE0
3E0F80
ENDCHAR
STARTCHAR ccedilla
ENCODING 231
SWIDTH 556 0
DWIDTH 13 0
BBX 11 19 1 -5
BITMAP
1F80
3FC0
79E0
70E0
E000
E000
E000
E000
E000
E000
70E0
79E0
3FC0
1F80
1E00
0700
0700
3F00
1E00
ENDCHAR
STARTCHAR egrave
ENCODING 232
SWIDTH 556 0
DWIDTH 14 0
BBX 12 19 1 0
BITMAP
1C00
0E00
0700
0380
0000
0F00
3FC0
79E0
70E0
E070
E070
FFF0
FFF0
E000
E000
7070
78F0
3FE0
0F80
ENDCHAR
STARTCHAR eacute
ENCODING 233
SWIDTH 556 0
DWIDTH 14 0
BBX 12 19 1 0
BITMAP
01C0
0380
0700
0E00
0000
0F00
3FC0
79E0
70E0
E070
E070
FFF0
FFF0
E000
E000
7070
78F0
3FE0
0F80
ENDCHAR
STARTCHAR ecircumflex
ENCODING 234
SWIDTH 556 0
DWIDTH 14 0
BBX 12 19 1 0
BITMAP
0700
0F80
1DC0
38E0
0000
0F00
3FC0
79E0
70E0
E070
E070
FFF0
FFF0
E000
E000
7070
78F0
3FE0
0F80
ENDCHAR
STARTCHAR edieresis
ENCODING 235
SWIDTH 556 0
DWIDTH 14 0
BBX 12 18 1 0
BITMAP
39C0
39C0
0000
0000
0F00
3FC0
79E0
70E0
E070
E070
FFF0
FFF0
E000
E000
7070
78F0
3FE0
0F80
ENDCHAR
STARTCHAR igrave
ENCODING 236
SWIDTH 278 0
DWIDTH 7 0
BBX 6 19 1 0
BITMAP
E0
70
38
1C
00
70
70
70
70
70
70
70
70
70
70
70
70
70
70
ENDCHAR
STARTCHAR iacute
ENCODING 237
SWIDTH 278 0
DWIDTH 7 0
BBX 6 19 1 0
BITMAP
1C
38
70
E0
00
70
70
70
70
70
70
70
70
70
70
70
70
70
70
ENDCHAR
STARTCHAR icircumflex
ENCODING 238
SWIDTH 278 0
DWIDTH 7 0
BBX 9 19 -1 0
BITMAP
1C00
3E00
7700
E380
0000
1C00
1C00
1C00
1C00
1C00
1C00
1C00
1C00
1C00
1C00
1C00
1C00
1C00
1C00
ENDCHAR
STARTCHAR idieresis
ENCODING 239
SWIDTH 278 0
DWIDTH 7 0
BBX 7 18 0 0
BITMAP
EE
EE
00
00
38
38
38
38
38
38
38
38
38
38
38
38
38
38
ENDCHAR
STARTCHAR eth
ENCODING 240
SWIDTH 611 0
DWIDTH 14 0
BBX 12 19 1 0
BITMAP
E000
39C0
1F00
3E00
C300
0F80
3FC0
79E0
70E0
E070
E070
E070
E070
E070
E070
70E0
79E0
3FC0
0F00
ENDCHAR
STARTCHAR ntilde
ENCODING 241
SWIDTH 611 0
DWIDTH 15 0
BBX 11 19 2 0
BITMAP
3CC0
7FC0
6780
0000
0000
EF80
FFC0
F1C0
E0E0
E0E0
E0E0
E0E0
E0E0
E0E0
E0E0
E0E0
E0E0
E0E0
E0E0
ENDCHAR
STARTCHAR ograve
ENCODING 242
SWIDTH 611 0
DWIDTH 14 0
BBX 12 19 1 0
BITMAP
1C00
0E00
0700
0380
0000
0F00
3FC0
79E0
70E0
E070
E070
E070
E070
E070
E070
70E0
79E0
3FC0
0F00
ENDCHAR
STARTCHAR oacute
ENCODING 243
SWIDTH 611 0
DWIDTH 14 0
BBX 12 19 1 0
BITMAP
01C0
0380
0700
0E00
0000
0F00
3FC0
79E0
70E0
E070
E070
E070
E070
E070
E070
70E0
79E0
3FC0
0F00
ENDCHAR
STARTCHAR ocircumflex
ENCODING 244
SWIDTH 611 0
DWIDTH 14 0
BBX 12 19 1 0
BITMAP
0700
0F80
1DC0
38E0
0000
0F00
3FC0
79E0
70E0
E070
E070
E070
E070
E070
E070
70E0
79E0
3FC0
0F00
ENDCHAR
STARTCHAR otilde
ENCODING 245
SWIDTH 611 0
DWIDTH 14 0
BBX 12 19 1 0
BITMAP
1E60
3FE0
33C0
0000
0000
0F00
3FC0
79E0
70E0
E070
E070
E070
E070
E070
E070
70E0
79E0
3FC0
0F00
ENDCHAR
STARTCHAR odieresis
ENCODING 246
SWIDTH 611 0
DWIDTH 14 0
BBX 12 18 1 0
BITMAP
1DC0
1DC0
0000
0000
0F00
3FC0
79E0
70E0
E070
E070
E070
E070
E070
E070
70E0
79E0
3FC0
0F00
ENDCHAR
STARTCHAR divide
ENCODING 247
SWIDTH 584 0
DWIDTH 15 0
BBX 11 12 2 1
BITMAP
0E00
0E00
0E00
0000
0000
FFE0
FFE0
0000
0000
0E00
0E00
0E00
ENDCHAR
STARTCHAR oslash
ENCODING 248
SWIDTH 611 0
DWIDTH 14 0
BBX 14 14 0 0
BITMAP
078C
1FF8
3CF0
3870
70F8
71F8
73B8
7738
7E38
7C38
3870
7CF0
DFE0
8780
ENDCHAR
STARTCHAR ugrave
ENCODING 249
SWIDTH 611 0
DWIDTH 15 0
BBX 11 19 2 0
BITMAP
3800
1C00
0E00
0700
0000
E0E0
E0E0
E0E0
E0E0
E0E0
E0E0
E0E0
E0E0
E0E0
E0E0
E1E0
73E0
7EE0
1CE0
ENDCHAR
STARTCHAR uacute
ENCODING 250
SWIDTH 611 0
DWIDTH 15 0
BBX 11 19 2 0
BITMAP
0380
0700
0E00
1C00
0000
E0E0
E0E0
E0E0
E0E0
E0E0
E0E0
E0E0
E0E0
E0E0
E0E0
E1E0
73E0
7EE0
1CE0
ENDCHAR
STARTCHAR ucircumflex
ENCODING 251
SWIDTH 611 0
DWIDTH 15 0
BBX 11 19 2 0
BITMAP
0E00
1F00
3B80
71C0
0000
E0E0
E0E0
E0E0
E0E0
E0E0
E0E0
E0E0
E0E0
E0E0
E0E0
E1E0
73E0
7EE0
1CE0
ENDCHAR
STARTCHAR udieresis
ENCODING 252
SWIDTH 611 0
DWIDTH 15 0
BBX 11 18 2 0
BITMAP
3B80
3B80
0000
0000
E0E0
E0E0
E0E0
E0E0
E0E0
E0E0
E0E0
E0E0
E0E0
E0E0
E1E0
73E0
7EE0
1CE0
ENDCHAR
STARTCHAR yacute
ENCODING 253
SWIDTH 556 0
DWIDTH 15 0
BBX 13 24 1 -5
BITMAP
00E0
01C0
0380
0700
0000
E038
E038
7038
7870
3870
3CF0
1CE0
1CE0
0FC0
0FC0
07C0
0780
0380
0380
0700
0700
0E00
3E00
3C00
ENDCHAR
STARTCHAR thorn
ENCODING 254
SWIDTH 611 0
DWIDTH 15 0
BBX 12 24 2 -5
BITMAP
E000
E000
E000
E000
E000
EF80
FFC0
F9E0
F0E0
E070
E070
E070
E070
E070
E070
F0E0
F9E0
FFC0
EF80
E000
E000
E000
E000
E000
ENDCHAR
STARTCHAR ydieresis
ENCODING 255
SWIDTH 556 0
DWIDTH 15 0
BBX 13 23 1 -5
BITMAP
1CE0
1CE0
0000
0000
E038
E038
7038
7870
3870
3CF0
1CE0
1CE0
0FC0
0FC0
07C0
0780
0380
0380
0700
0700
0E00
3E00
3C00
ENDCHAR
STARTCHAR uni0400
ENCODING 1024
SWIDTH 667 0
DWIDTH 16 0
BBX 13 24 2 0
BITMAP
7000
3800
1C00
0E00
0000
FFF0
FFF0
E000
E000
E000
E000
E000
E000
FFE0
FFE0
E000
E000
E000
E000
E000
E000
E000
FFF8
FFF8
ENDCHAR
STARTCHAR afii10023
ENCODING 1025
SWIDTH 667 0
DWIDTH 16 0
BBX 13 23 2 0
BITMAP
39C0
39C0
0000
0000
FFF0
FFF0
E000
E000
E000
E000
E000
E000
FFE0
FFE0
E000
E000
E000
E000
E000
E000
E000
FFF8
FFF8
ENDCHAR
STARTCHAR afii10053
ENCODING 1028
SWIDTH 720 0
DWIDTH 18 0
BBX 16 19 1 0
BITMAP
07F0
1FFC
3E3E
780F
7007
F000
E000
E000
FFC0
FFC0
E000
E000
E000
F007
7007
780F
3E3E
1FFC
07F0
ENDCHAR
STARTCHAR afii10054
ENCODING 1029
SWIDTH 667 0
DWIDTH 17 0
BBX 15 19 1 0
BITMAP
07E0
1FF8
3C7C
781C
701C
7000
7800
3E00
1FE0
03F8
007C
001E
000E
E00E
E00E
F01E
7C7C
3FF8
0FE0
ENDCHAR
STARTCHAR afii10055
ENCODING 1030
SWIDTH 278 0
DWIDTH 7 0
BBX 3 19 2 0
BITMAP
E0
E0
E0
E0
E0
E0
E0
E0
E0
E0
E0
E0
E0
E0
E0
E0
E0
E0
E0
ENDCHAR
STARTCHAR afii10056
ENCODING 1031
SWIDTH 278 0
DWIDTH 7 0
BBX 7 23 0 0
BITMAP
EE
EE
00
00
38
38
38
38
38
38
38
38
38
38
38
38
38
38
38
38
38
38
38
ENDCHAR
STARTCHAR afii10057
ENCODING 1032
SWIDTH 556 0
DWIDTH 14 0
BBX 11 19 1 0
BITMAP
00E0
00E0
00E0
00E0
00E0
00E0
00E0
00E0
00E0
00E0
00E0
00E0
E0E0
E0E0
E0E0
E0E0
71E0
7FC0
3F80
ENDCHAR
STARTCHAR afii10062
ENCODING 1038
SWIDTH 720 0
DWIDTH 18 0
BBX 16 24 1 0
BITMAP
1818
1C38
0FF0
03C0
0000
E007
E007
F00F
700E
781E
381C
381C
3C3C
1C38
1E78
0E70
0E70
07E0
07E0
03C0
03C0
0780
1F00
1C00
ENDCHAR
STARTCHAR afii10017
ENCODING 1040
SWIDTH 720 0
DWIDTH 18 0
BBX 16 19 1 0
BITMAP
03C0
03C0
07E0
07E0
0E60
0E70
0E70
1C38
1C38
1C38
381C
381C
3FFC
7FFE
700E
700E
E007
E007
E007
ENDCHAR
STARTCHAR afii10018
ENCODING 1041
SWIDTH 720 0
DWIDTH 18 0
BBX 15 19 2 0
BITMAP
FFFC
FFFC
E000
E000
E000
E000
E000
E000
FFE0
FFF8
E07C
E01E
E00E
E00E
E00E
E01E
E07C
FFF8
FFE0
ENDCHAR
STARTCHAR afii10019
ENCODING 1042
SWIDTH 720 0
DWIDTH 18 0
BBX 15 19 2 0
BITMAP
FFE0
FFF8
E078
E01C
E01C
E01C
E01C
E038
FFF0
FFF8
E01C
E00E
E00E
E00E
E00E
E01E
E07C
FFF8
FFE0
ENDCHAR
STARTCHAR afii10020
ENCODING 1043
SWIDTH 600 0
DWIDTH 15 0
BBX 12 19 2 0
BITMAP
FFF0
FFF0
E000
E000
E000
E000
E000
E000
E000
E000
E000
E000
E000
E000
E000
E000
E000
E000
E000
ENDCHAR
STARTCHAR afii10021
ENCODING 1044
SWIDTH 840 0
DWIDTH 21 0
BBX 19 23 1 -4
BITMAP
0FFF80
0FFF80
0E0380
0E0380
0E0380
0E0380
0E0380
0E0380
0E0380
0E0380
0E0380
1E0380
1C0380
1C0380
1C0380
3C0380
380380
FFFFE0
FFFFE0
E000E0
E000E0
E000E0
E000E0
ENDCHAR
STARTCHAR afii10022
ENCODING 1045
SWIDTH 640 0
DWIDTH 16 0
BBX 13 19 2 0
BITMAP
FFF0
FFF0
E000
E000
E000
E000
E000
E000
FFE0
FFE0
E000
E000
E000
E000
E000
E000
E000
FFF8
FFF8
ENDCHAR
STARTCHAR afii10024
ENCODING 1046
SWIDTH 1040 0
DWIDTH 26 0
BBX 25 19 0 0
BITMAP
E01C0380
F01C0780
781C0F00
3C1C1E00
1E1C3C00
0F1C7800
079CF000
03DDE000
01FFC000
00FF8000
01FFC000
03DDE000
079CF000
0F1C7800
1E1C3C00
3C1C1E00
781C0F00
F01C0780
E01C0380
ENDCHAR
STARTCHAR afii10025
ENCODING 1047
SWIDTH 640 0
DWIDTH 16 0
BBX 14 19 1 0
BITMAP
1FC0
7FF0
70F0
E038
E038
0038
0038
0070
07E0
07F0
0038
001C
001C
001C
001C
E03C
F0F8
7FF0
1FC0
ENDCHAR
STARTCHAR afii10026
ENCODING 1048
SWIDTH 760 0
DWIDTH 19 0
BBX 15 19 2 0
BITMAP
E00E
E01E
E01E
E03E
E03E
E07E
E0EE
E0EE
E1CE
E38E
E38E
E70E
E60E
EE0E
FC0E
F80E
F80E
F00E
E00E
ENDCHAR
STARTCHAR afii10027
ENCODING 1049
SWIDTH 760 0
DWIDTH 19 0
BBX 15 24 2 0
BITMAP
1830
1C70
0FE0
0380
0000
E00E
E01E
E01E
E03E
E03E
E07E
E0EE
E0EE
E1CE
E38E
E38E
E70E
E60E
EE0E
FC0E
F80E
F80E
F00E
E00E
ENDCHAR
STARTCHAR afii10028
ENCODING 1050
SWIDTH 720 0
DWIDTH 18 0
BBX 16 19 2 0
BITMAP
E03C
E078
E0F0
E1E0
E3C0
E780
EF00
FE00
FE00
FF00
F780
E3C0
E1E0
E0F0
E078
E03C
E01E
E00F
E007
ENDCHAR
STARTCHAR afii10029
ENCODING 1051
SWIDTH 800 0
DWIDTH 20 0
BBX 17 19 1 0
BITMAP
0FFF80
0FFF80
0E0380
0E0380
0E0380
0E0380
0E0380
0E0380
0E0380
0E0380
0E0380
0E0380
0E0380
1E0380
1C0380
1C0380
3C0380
F80380
F00380
ENDCHAR
STARTCHAR afii10030
ENCODING 1052
SWIDTH 920 0
DWIDTH 23 0
BBX 19 19 2 0
BITMAP
E000E0
F001E0
F001E0
F803E0
F803E0
FC07E0
EC06E0
EE0EE0
E60CE0
E71CE0
E71CE0
E318E0
E3B8E0
E3B8E0
E1F0E0
E1F0E0
E0E0E0
E0E0E0
E0E0E0
ENDCHAR
STARTCHAR afii10031
ENCODING 1053
SWIDTH 760 0
DWIDTH 19 0
BBX 15 19 2 0
BITMAP
E00E
E00E
E00E
E00E
E00E
E00E
E00E
E00E
FFFE
FFFE
E00E
E00E
E00E
E00E
E00E
E00E
E00E
E00E
E00E
ENDCHAR
STARTCHAR afii10032
ENCODING 1054
SWIDTH 760 0
DWIDTH 19 0
BBX 17 19 1 0
BITMAP
07F000
1FFC00
3E3E00
780F00
700700
F00780
E00380
E00380
E00380
E00380
E00380
E00380
E00380
F00780
700700
780F00
3E3E00
1FFC00
07F000
ENDCHAR
STARTCHAR afii10033
ENCODING 1055
SWIDTH 760 0
DWIDTH 19 0
BBX 15 19 2 0
BITMAP
FFFE
FFFE
E00E
E00E
E00E
E00E
E00E
E00E
E00E
E00E
E00E
E00E
E00E
E00E
E00E
E00E
E00E
E00E
E00E
ENDCHAR
STARTCHAR afii10034
ENCODING 1056
SWIDTH 680 0
DWIDTH 17 0
BBX 14 19 2 0
BITMAP
FFE0
FFF8
E038
E01C
E01C
E01C
E01C
E038
FFF8
FFF0
E000
E000
E000
E000
E000
E000
E000
E000
E000
ENDCHAR
STARTCHAR afii10035
ENCODING 1057
SWIDTH 720 0
DWIDTH 18 0
BBX 16 19 1 0
BITMAP
07F0
1FFC
3E3E
780F
7007
F000
E000
E000
E000
E000
E000
E000
E000
F007
7007
780F
3E3E
1FFC
07F0
ENDCHAR
STARTCHAR afii10036
ENCODING 1058
SWIDTH 600 0
DWIDTH 15 0
BBX 15 19 0 0
BITMAP
FFFE
FFFE
0380
0380
0380
0380
0380
0380
0380
0380
0380
0380
0380
0380
0380
0380
0380
0380
0380
ENDCHAR
STARTCHAR afii10037
ENCODING 1059
SWIDTH 720 0
DWIDTH 18 0
BBX 16 19 1 0
BITMAP
E007
E007
F00F
700E
781E
381C
3C3C
1C38
1E78
0E70
0E70
07E0
07E0
03C0
03C0
0780
0F00
3E00
3800
ENDCHAR
STARTCHAR afii10038
ENCODING 1060
SWIDTH 840 0
DWIDTH 21 0
BBX 19 19 1 0
BITMAP
00E000
00E000
0FFE00
3FFF80
7CE7C0
70E1C0
F0E1E0
E0E0E0
E0E0E0
E0E0E0
E0E0E0
E0E0E0
F0E1E0
70E1C0
7CE7C0
3FFF80
0FFE00
00E000
00E000
ENDCHAR
STARTCHAR afii10039
ENCODING 1061
SWIDTH 720 0
DWIDTH 18 0
BBX 16 19 1 0
BITMAP
E007
F00F
781E
381C
1C38
0E70
0FF0
07E0
03C0
03C0
07E0
0FF0
0E70
1C38
3C3C
381C
700E
F00F
E007
ENDCHAR
STARTCHAR afii10040
ENCODING 1062
SWIDTH 800 0
DWIDTH 20 0
BBX 17 23 2 -4
BITMAP
E00E00
E00E00
E00E00
E00E00
E00E00
E00E00
E00E00
E00E00
E00E00
E00E00
E00E00
E00E00
E00E00
E00E00
E00E00
E00E00
E00E00
FFFF80
FFFF80
000380
000380
000380
000380
ENDCHAR
STARTCHAR afii10041
ENCODING 1063
SWIDTH 720 0
DWIDTH 18 0
BBX 15 19 1 0
BITMAP
E00E
E00E
E00E
E00E
E00E
E00E
E00E
E00E
703E
7FFE
1FCE
000E
000E
000E
000E
000E
000E
000E
000E
ENDCHAR
STARTCHAR afii10042
ENCODING 1064
SWIDTH 920 0
DWIDTH 23 0
BBX 19 19 2 0
BITMAP
E0E0E0
E0E0E0
E0E0E0
E0E0E0
E0E0E0
E0E0E0
E0E0E0
E0E0E0
E0E0E0
E0E0E0
E0E0E0
E0E0E0
E0E0E0
E0E0E0
E0E0E0
E0E0E0
E0E0E0
FFFFE0
FFFFE0
ENDCHAR
STARTCHAR afii10043
ENCODING 1065
SWIDTH 960 0
DWIDTH 24 0
BBX 21 23 2 -4
BITMAP
E0E0E0
E0E0E0
E0E0E0
E0E0E0
E0E0E0
E0E0E0
E0E0E0
E0E0E0
E0E0E0
E0E0E0
E0E0E0
E0E0E0
E0E0E0
E0E0E0
E0E0E0
E0E0E0
E0E0E0
FFFFF8
FFFFF8
000038
000038
000038
000038
ENDCHAR
STARTCHAR afii10044
ENCODING 1066
SWIDTH 800 0
DWIDTH 20 0
BBX 19 19 0 0
BITMAP
FE0000
FE0000
0E0000
0E0000
0E0000
0E0000
0E0000
0E0000
0FFE00
0FFF80
0E07C0
0E01E0
0E00E0
0E00E0
0E00E0
0E01E0
0E07C0
0FFF80
0FFE00
ENDCHAR
STARTCHAR afii10045
ENCODING 1067
SWIDTH 1000 0
DWIDTH 25 0
BBX 21 19 2 0
BITMAP
E00038
E00038
E00038
E00038
E00038
E00038
E00038
E00038
FFE038
FFF838
E07C38
E01E38
E00E38
E00E38
E00E38
E01E38
E07C38
FFF838
FFE038
ENDCHAR
STARTCHAR afii10046
ENCODING 1068
SWIDTH 720 0
DWIDTH 18 0
BBX 15 19 2 0
BITMAP
E000
E000
E000
E000
E000
E000
E000
E000
FFE0
FFF8
E07C
E01E
E00E
E00E
E00E
E01E
E07C
FFF8
FFE0
ENDCHAR
STARTCHAR afii10047
ENCODING 1069
SWIDTH 720 0
DWIDTH 18 0
BBX 16 19 1 0
BITMAP
0FE0
3FF8
7C7C
F01E
E00E
000F
0007
0007
03FF
03FF
0007
0007
0007
E00F
E00E
F01E
7C7C
3FF8
0FE0
ENDCHAR
STARTCHAR afii10048
ENCODING 1070
SWIDTH 1040 0
DWIDTH 26 0
BBX 23 19 2 0
BITMAP
E01FC0
E07FF0
E0F8F8
E1E03C
E1C01C
E3C01E
E3800E
E3800E
FF800E
FF800E
E3800E
E3800E
E3800E
E3C01E
E1C01C
E1E03C
E0F8F8
E07FF0
E01FC0
ENDCHAR
STARTCHAR afii10049
ENCODING 1071
SWIDTH 680 0
DWIDTH 17 0
BBX 14 19 1 0
BITMAP
1FFC
7FFC
701C
E01C
E01C
E01C
E01C
701C
7FFC
3FFC
781C
701C
E01C
E01C
E01C
E01C
E01C
E01C
E01C
ENDCHAR
STARTCHAR afii10065
ENCODING 1072
SWIDTH 560 0
DWIDTH 14 0
BBX 12 14 1 0
BITMAP
1F80
3FC0
71E0
70E0
00E0
07E0
3FE0
7CE0
F0E0
E0E0
E1E0
F3E0
7FF0
3E70
ENDCHAR
STARTCHAR afii10066
ENCODING 1073
SWIDTH 560 0
DWIDTH 14 0
BBX 12 19 1 0
BITMAP
0060
0FE0
3FC0
7800
7000
EF00
FFC0
F9E0
F0E0
E070
E070
E070
E070
E070
E070
70E0
79E0
3FC0
0F00
ENDCHAR
STARTCHAR afii10067
ENCODING 1074
SWIDTH 560 0
DWIDTH 14 0
BBX 11 14 2 0
BITMAP
FF00
FF80
E3C0
E1C0
E1C0
E380
FF80
FFC0
E1E0
E0E0
E0E0
E1E0
FFC0
FF80
ENDCHAR
STARTCHAR afii10068
ENCODING 1075
SWIDTH 440 0
DWIDTH 11 0
BBX 9 14 2 0
BITMAP
FF80
FF80
E000
E000
E000
E000
E000
E000
E000
E000
E000
E000
E000
E000
ENDCHAR
STARTCHAR afii10069
ENCODING 1076
SWIDTH 600 0
DWIDTH 15 0
BBX 13 17 1 -3
BITMAP
3FF0
3FF0
3870
3870
3870
3870
3870
3870
3870
7870
7070
7070
FFF8
FFF8
E038
E038
E038
ENDCHAR
STARTCHAR afii10070
ENCODING 1077
SWIDTH 560 0
DWIDTH 14 0
BBX 12 14 1 0
BITMAP
0F00
3FC0
79E0
70E0
E070
E070
FFF0
FFF0
E000
E000
7070
78F0
3FE0
0F80
ENDCHAR
STARTCHAR afii10072
ENCODING 1078
SWIDTH 840 0
DWIDTH 21 0
BBX 19 14 1 0
BITMAP
E0E0E0
F0E1E0
70E1C0
38E380
1CE700
1EEF00
0FFE00
0FFE00
1EEF00
1CE700
38E380
70E1C0
F0E1E0
E0E0E0
ENDCHAR
STARTCHAR afii10073
ENCODING 1079
SWIDTH 520 0
DWIDTH 13 0
BBX 11 14 1 0
BITMAP
3F00
7F80
F3C0
E1C0
01C0
0380
0F80
0FC0
01E0
00E0
E0E0
F1E0
7FC0
3F80
ENDCHAR
STARTCHAR afii10074
ENCODING 1080
SWIDTH 640 0
DWIDTH 16 0
BBX 12 14 2 0
BITMAP
E0F0
E0F0
E1F0
E1F0
E3F0
E370
E770
E670
EE70
EC70
FC70
F870
F870
F070
ENDCHAR
STARTCHAR afii10075
ENCODING 1081
SWIDTH 640 0
DWIDTH 16 0
BBX 12 19 2 0
BITMAP
1040
18C0
1FC0
0F80
0000
E0F0
E0F0
E1F0
E1F0
E3F0
E370
E770
E670
EE70
EC70
FC70
F870
F870
F070
ENDCHAR
STARTCHAR afii10076
ENCODING 1082
SWIDTH 560 0
DWIDTH 14 0
BBX 12 14 2 0
BITMAP
E1E0
E3C0
E780
EF00
FE00
FC00
FE00
EF00
E700
E780
E3C0
E1C0
E1E0
E0F0
ENDCHAR
STARTCHAR afii10077
ENCODING 1083
SWIDTH 600 0
DWIDTH 15 0
BBX 13 14 0 0
BITMAP
1FF8
1FF8
1C38
1C38
1C38
1C38
1C38
1C38
1C38
1C38
3C38
3838
F838
F038
ENDCHAR
STARTCHAR afii10078
ENCODING 1084
SWIDTH 760 0
DWIDTH 19 0
BBX 15 14 2 0
BITMAP
E00E
E00E
F01E
F01E
F83E
F83E
FC7E
EC6E
EC6E
EEEE
E6CE
E7CE
E38E
E38E
ENDCHAR
STARTCHAR afii10079
ENCODING 1085
SWIDTH 600 0
DWIDTH 15 0
BBX 11 14 2 0
BITMAP
E0E0
E0E0
E0E0
E0E0
E0E0
E0E0
FFE0
FFE0
E0E0
E0E0
E0E0
E0E0
E0E0
E0E0
ENDCHAR
STARTCHAR afii10080
ENCODING 1086
SWIDTH 560 0
DWIDTH 14 0
BBX 12 14 1 0
BITMAP
0F00
3FC0
79E0
70E0
E070
E070
E070
E070
E070
E070
70E0
79E0
3FC0
0F00
ENDCHAR
STARTCHAR afii10081
ENCODING 1087
SWIDTH 600 0
DWIDTH 15 0
BBX 11 14 2 0
BITMAP
FFE0
FFE0
E0E0
E0E0
E0E0
E0E0
E0E0
E0E0
E0E0
E0E0
E0E0
E0E0
E0E0
E0E0
ENDCHAR
STARTCHAR afii10082
ENCODING 1088
SWIDTH 600 0
DWIDTH 15 0
BBX 12 19 2 -5
BITMAP
EF80
FFC0
F9E0
F0E0
E070
E070
E070
E070
E070
E070
F0E0
F9E0
FFC0
EF80
E000
E000
E000
E000
E000
ENDCHAR
STARTCHAR afii10083
ENCODING 1089
SWIDTH 520 0
DWIDTH 13 0
BBX 11 14 1 0
BITMAP
1F80
3FC0
79E0
70E0
E000
E000
E000
E000
E000
E000
70E0
79E0
3FC0
1F80
ENDCHAR
STARTCHAR afii10084
ENCODING 1090
SWIDTH 440 0
DWIDTH 11 0
BBX 11 14 0 0
BITMAP
FFE0
FFE0
0E00
0E00
0E00
0E00
0E00
0E00
0E00
0E00
0E00
0E00
0E00
0E00
ENDCHAR
STARTCHAR afii10085
ENCODING 1091
SWIDTH 600 0
DWIDTH 15 0
BBX 13 19 1 -5
BITMAP
E038
E038
7038
7870
3870
3CF0
1CE0
1CE0
0FC0
0FC0
07C0
0780
0380
0380
0700
0700
0E00
3E00
3C00
ENDCHAR
STARTCHAR afii10086
ENCODING 1092
SWIDTH 840 0
DWIDTH 21 0
BBX 19 24 1 -5
BITMAP
00E000
00E000
00E000
00E000
00E000
1EEF00
3FFF80
79F3C0
71F1C0
E0E0E0
E0E0E0
E0E0E0
E0E0E0
E0E0E0
E0E0E0
71F1C0
79F3C0
3FFF80
1EEF00
00E000
00E000
00E000
00E000
00E000
ENDCHAR
STARTCHAR afii10087
ENCODING 1093
SWIDTH 520 0
DWIDTH 13 0
BBX 11 14 1 0
BITMAP
E0E0
F1E0
71C0
3B80
3F80
1F00
0E00
1F00
1F00
3B80
7BC0
71C0
F1E0
E0E0
ENDCHAR
STARTCHAR afii10088
ENCODING 1094
SWIDTH 600 0
DWIDTH 15 0
BBX 12 17 2 -3
BITMAP
E0E0
E0E0
E0E0
E0E0
E0E0
E0E0
E0E0
E0E0
E0E0
E0E0
E0E0
E0E0
FFF0
FFF0
0070
0070
0070
ENDCHAR
STARTCHAR afii10089
ENCODING 1095
SWIDTH 560 0
DWIDTH 14 0
BBX 11 14 1 0
BITMAP
E0E0
E0E0
E0E0
E0E0
E0E0
E0E0
71E0
7FE0
1EE0
00E0
00E0
00E0
00E0
00E0
ENDCHAR
STARTCHAR afii10090
ENCODING 1096
SWIDTH 840 0
DWIDTH 21 0
BBX 17 14 2 0
BITMAP
E1C380
E1C380
E1C380
E1C380
E1C380
E1C380
E1C380
E1C380
E1C380
E1C380
E1C380
E1C380
FFFF80
FFFF80
ENDCHAR
STARTCHAR afii10091
ENCODING 1097
SWIDTH 840 0
DWIDTH 21 0
BBX 18 17 2 -3
BITMAP
E1C380
E1C380
E1C380
E1C380
E1C380
E1C380
E1C380
E1C380
E1C380
E1C380
E1C380
E1C380
FFFFC0
FFFFC0
0001C0
0001C0
0001C0
ENDCHAR
STARTCHAR afii10092
ENCODING 1098
SWIDTH 600 0
DWIDTH 15 0
BBX 14 14 0 0
BITMAP
FC00
FC00
1C00
1C00
1C00
1C00
1FF0
1FF8
1C3C
1C1C
1C1C
1C3C
1FF8
1FF0
ENDCHAR
STARTCHAR afii10093
ENCODING 1099
SWIDTH 840 0
DWIDTH 21 0
BBX 17 14 2 0
BITMAP
E00380
E00380
E00380
E00380
E00380
E00380
FF8380
FFC380
E1E380
E0E380
E0E380
E1E380
FFC380
FF8380
ENDCHAR
STARTCHAR afii10094
ENCODING 1100
SWIDTH 560 0
DWIDTH 14 0
BBX 11 14 2 0
BITMAP
E000
E000
E000
E000
E000
E000
FF80
FFC0
E1E0
E0E0
E0E0
E1E0
FFC0
FF80
ENDCHAR
STARTCHAR afii10095
ENCODING 1101
SWIDTH 520 0
DWIDTH 13 0
BBX 11 14 1 0
BITMAP
3F00
7F80
F3C0
E1C0
00E0
00E0
0FE0
0FE0
00E0
00E0
E1C0
F3C0
7F80
3F00
ENDCHAR
STARTCHAR afii10096
ENCODING 1102
SWIDTH 840 0
DWIDTH 21 0
BBX 18 14 2 0
BITMAP
E03C00
E0FF00
E1E780
E1C380
E381C0
E381C0
FF81C0
FF81C0
E381C0
E381C0
E1C380
E1E780
E0FF00
E03C00
ENDCHAR
STARTCHAR afii10097
ENCODING 1103
SWIDTH 560 0
DWIDTH 14 0
BBX 11 14 1 0
BITMAP
3FE0
7FE0
F0E0
E0E0
E0E0
F0E0
7FE0
3FE0
38E0
70E0
70E0
E0E0
E0E0
E0E0
ENDCHAR
STARTCHAR uni0450
ENCODING 1104
SWIDTH 556 0
DWIDTH 14 0
BBX 12 19 1 0
BITMAP
1C00
0E00
0700
0380
0000
0F00
3FC0
79E0
70E0
E070
E070
FFF0
FFF0
E000
E000
7070
78F0
3FE0
0F80
ENDCHAR
STARTCHAR afii10071
ENCODING 1105
SWIDTH 556 0
DWIDTH 14 0
BBX 12 18 1 0
BITMAP
39C0
39C0
0000
0000
0F00
3FC0
79E0
70E0
E070
E070
FFF0
FFF0
E000
E000
7070
78F0
3FE0
0F80
ENDCHAR
STARTCHAR afii10101
ENCODING 1108
SWIDTH 520 0
DWIDTH 13 0
BBX 11 14 1 0
BITMAP
1F80
3FC0
79E0
70E0
E000
E000
FE00
FE00
E000
E000
70E0
79E0
3FC0
1F80
ENDCHAR
STARTCHAR afii10102
ENCODING 1109
SWIDTH 556 0
DWIDTH 13 0
BBX 11 14 1 0
BITMAP
3F00
7F80
F3C0
E1C0
E000
FC00
7F80
0FC0
01E0
E0E0
E0E0
F1E0
7FC0
3F80
ENDCHAR
STARTCHAR afii10103
ENCODING 1110
SWIDTH 278 0
DWIDTH 7 0
BBX 3 19 2 0
BITMAP
E0
E0
E0
00
00
E0
E0
E0
E0
E0
E0
E0
E0
E0
E0
E0
E0
E0
E0
ENDCHAR
STARTCHAR afii10104
ENCODING 1111
SWIDTH 278 0
DWIDTH 7 0
BBX 7 18 0 0
BITMAP
EE
EE
00
00
38
38
38
38
38
38
38
38
38
38
38
38
38
38
ENDCHAR
STARTCHAR afii10105
ENCODING 1112
SWIDTH 278 0
DWIDTH 7 0
BBX 5 24 0 -5
BITMAP
38
38
38
00
00
38
38
38
38
38
38
38
38
38
38
38
38
38
38
38
38
38
F8
F0
ENDCHAR
STARTCHAR afii10110
ENCODING 1118
SWIDTH 600 0
DWIDTH 15 0
BBX 13 24 1 -5
BITMAP
1040
18C0
1FC0
0F80
0000
E038
E038
7038
7870
3870
3CF0
1CE0
1CE0
0FC0
0FC0
07C0
0780
0380
0380
0700
0700
0E00
3E00
3C00
ENDCHAR
STARTCHAR afii10050
ENCODING 1168
SWIDTH 600 0
DWIDTH 15 0
BBX 12 23 2 0
BITMAP
0070
0070
0070
0070
FFF0
FFF0
E000
E000
E000
E000
E000
E000
E000
E000
E000
E000
E000
E000
E000
E000
E000
E000
E000
ENDCHAR
STARTCHAR afii10098
ENCODING 1169
SWIDTH 440 0
DWIDTH 11 0
BBX 9 17 2 0
BITMAP
0380
0380
0380
FF80
FF80
E000
E000
E000
E000
E000
E000
E000
E000
E000
E000
E000
E000
ENDCHAR
STARTCHAR uni04AA
ENCODING 1194
SWIDTH 722 0
DWIDTH 18 0
BBX 16 24 1 -5
BITMAP
07F0
1FFC
3E3E
780F
7007
F000
E000
E000
E000
E000
E000
E000
E000
F007
7007
780F
3E3E
1FFC
07F0
03C0
00E0
00E0
07E0
03C0
ENDCHAR
STARTCHAR uni04AB
ENCODING 1195
SWIDTH 556 0
DWIDTH 13 0
BBX 11 19 1 -5
BITMAP
1F80
3FC0
79E0
70E0
E000
E000
E000
E000
E000
E000
70E0
79E0
3FC0
1F80
1E00
0700
0700
3F00
1E00
ENDCHAR
STARTCHAR uni04AE
ENCODING 1198
SWIDTH 667 0
DWIDTH 17 0
BBX 15 19 1 0
BITMAP
E00E
F01E
701C
783C
3838
3C78
1C70
1EF0
0EE0
0FE0
07C0
07C0
0380
0380
0380
0380
0380
0380
0380
ENDCHAR
STARTCHAR uni04C0
ENCODING 1216
SWIDTH 278 0
DWIDTH 7 0
BBX 3 19 2 0
BITMAP
E0
E0
E0
E0
E0
E0
E0
E0
E0
E0
E0
E0
E0
E0
E0
E0
E0
E0
E0
ENDCHAR
STARTCHAR uni04D2
ENCODING 1234
SWIDTH 722 0
DWIDTH 18 0
BBX 16 23 1 0
BITMAP
0E70
0E70
0000
0000
03C0
03C0
07E0
07E0
0E60
0E70
0E70
1C38
1C38
1C38
381C
381C
3FFC
7FFE
700E
700E
E007
E007
E007
ENDCHAR
STARTCHAR uni04D3
ENCODING 1235
SWIDTH 556 0
DWIDTH 14 0
BBX 12 18 1 0
BITMAP
1DC0
1DC0
0000
0000
1F80
3FC0
71E0
70E0
00E0
07E0
3FE0
7CE0
F0E0
E0E0
E1E0
F3E0
7FF0
3E70
ENDCHAR
STARTCHAR uni04D4
ENCODING 1236
SWIDTH 1000 0
DWIDTH 24 0
BBX 22 19 1 0
BITMAP
03FFF8
03FFF8
07F000
067000
0E7000
0E7000
0E7000
1C7000
1C7FF0
1C7FF0
387000
387000
3FF000
7FF000
707000
707000
E07000
E07FFC
E07FFC
ENDCHAR
STARTCHAR uni04D5
ENCODING 1237
SWIDTH 889 0
DWIDTH 22 0
BBX 20 14 1 0
BITMAP
1F8F00
3FFFC0
71F9E0
70F0E0
00E070
07E070
3FFFF0
7CFFF0
F0E000
E0E000
E1F070
F3F8F0
7F3FE0
3E0F80
ENDCHAR
STARTCHAR uni04E6
ENCODING 1254
SWIDTH 778 0
DWIDTH 19 0
BBX 17 23 1 0
BITMAP
0E3800
0E3800
000000
000000
07F000
1FFC00
3E3E00
780F00
700700
F00780
E00380
E00380
E00380
E00380
E00380
E00380
E00380
F00780
700700
780F00
3E3E00
1FFC00
07F000
ENDCHAR
STARTCHAR uni04E7
ENCODING 1255
SWIDTH 611 0
DWIDTH 14 0
BBX 12 18 1 0
BITMAP
1DC0
1DC0
0000
0000
0F00
3FC0
79E0
70E0
E070
E070
E070
E070
E070
E070
70E0
79E0
3FC0
0F00
ENDCHAR
ENDFONT
